# xmcd
#
# Track frame offsets: 
#        150
#        12622
#        23893
#        34755
#        44924
#        54384
#        64189
#        76461
#        87302
#        99630
#        108752
#        118913
#        131851
#        143579
#        157650
#        169283
#        181475
#        192005
#        202047
#        216277
#
# Disc length: 3064 seconds
#
# Revision: 0
# Processed by: cddbd v1.5.2PL0 Copyright (c) Steve Scherf et al.
# Submitted via: ExactAudioCopy v0.95b4
#
DISCID=220bf614
DTITLE=Jackie Wilson - The History Of Jackie Wilson Volume 1 (Coast to
DTITLE=Coast) Disc 1
DYEAR=2006
DGENRE=R&B
TTITLE0=Reet Petite (The Finest Girl You Ever Want To Meet)
TTITLE1=To Be Loved
TTITLE2=Etcetera
TTITLE3=Come Back To Me
TTITLE4=That's Why (I Love You So)
TTITLE5=I'll Be Satisfied
TTITLE6=I'm Wanderin'
TTITLE7=We Have Love
TTITLE8=Lonely Teardrops
TTITLE9=You Better Know It
TTITLE10=Talk That Talk
TTITLE11=Doggin' Around
TTITLE12=A Woman, A Lover, A Friend
TTITLE13=Shake A Hand [with Linda Hopkins]
TTITLE14=Am I The Man
TTITLE15=Your One And Only Love
TTITLE16=I'm Comin' On Back To You
TTITLE17=The Way I Am
TTITLE18=The Greatest Hurt
TTITLE19=There'll Be No Next Time
EXTD=
EXTT0=
EXTT1=
EXTT2=
EXTT3=
EXTT4=
EXTT5=
EXTT6=
EXTT7=
EXTT8=
EXTT9=
EXTT10=
EXTT11=
EXTT12=
EXTT13=
EXTT14=
EXTT15=
EXTT16=
EXTT17=
EXTT18=
EXTT19=
PLAYORDER=
